<?xml version="1.0" encoding="iso-8859-1"?>
<!-- Generator: Adobe Illustrator 19.1.0, SVG Export Plug-In . SVG Version: 6.00 Build 0)  -->
<svg version="1.1" id="Capa_1" xmlns="http://www.w3.org/2000/svg" xmlns:xlink="http://www.w3.org/1999/xlink" x="0px" y="0px"
	 viewBox="0 0 470 470" style="enable-background:new 0 0 470 470;" xml:space="preserve">
<g>
	<path style="fill:#FFB033;" d="M273.66,76.771v-15c-4.142,0-7.5-3.357-7.5-7.5V15h-62.34v22.49c0,0.02,0,16.781,0,16.781
		c0,4.143-3.358,7.5-7.5,7.5l0,15H273.66z"/>
	<path style="fill:#FF7633;" d="M261.721,434.731h-53.462C211.541,446.41,222.278,455,234.99,455S258.44,446.41,261.721,434.731z"/>
	<path style="fill:#FFD085;" d="M116.511,91.771v15c4.14,0.002,7.497,3.358,7.497,7.5v222.96c0,4.141-3.356,7.498-7.497,7.5v15
		c4.14,0.002,7.497,3.358,7.497,7.5v52.5h221.965v-305.46c0-4.142,3.357-7.499,7.498-7.5v-15H116.511z M281.061,358.386
		c-4.135,0-7.5-3.365-7.5-7.5c0-4.135,3.365-7.5,7.5-7.5s7.5,3.365,7.5,7.5C288.561,355.022,285.196,358.386,281.061,358.386z
		 M306.767,383.965c-4.135,0-7.5-3.365-7.5-7.5s3.365-7.5,7.5-7.5s7.5,3.365,7.5,7.5S310.902,383.965,306.767,383.965z"/>
	<path style="fill:#FFB033;" d="M116.508,344.731c-4.142,0-7.5-3.357-7.5-7.5v-222.96c0-4.143,3.358-7.5,7.5-7.5
		c0.003,0,0.003-15,0.003-15c-12.497,0-23.855,10.525-24.805,22.983L68.459,419.731h40.548v-52.5c0-4.143,3.358-7.5,7.5-7.5
		C116.511,359.732,116.511,344.731,116.508,344.731z"/>
	<path style="fill:#FFB033;" d="M353.473,91.771c-0.002,0-0.002,15-0.002,15c4.144,0,7.502,3.357,7.502,7.5v305.46h40.548
		l-23.247-304.977C377.325,102.297,365.967,91.771,353.473,91.771z"/>
	<path style="fill:#081C1F;" d="M417.05,426.104l-23.819-312.49c-1.548-20.315-19.384-36.843-39.758-36.843h-22.209V67.5
		c0-20.678-16.822-37.5-37.5-37.5H281.16V7.5c0-4.143-3.358-7.5-7.5-7.5h-77.34c-4.142,0-7.5,3.357-7.5,7.5V30h-12.604
		c-20.678,0-37.5,16.822-37.5,37.5v9.271h-22.209c-20.375,0-38.21,16.527-39.758,36.843L52.888,426.661
		c-0.159,2.082,0.558,4.137,1.978,5.668c1.419,1.532,3.413,2.402,5.501,2.402h132.527C196.451,454.749,213.967,470,234.99,470
		s38.539-15.251,42.097-35.269h132.527c4.162,0,7.52-3.357,7.52-7.5C417.134,426.849,417.105,426.472,417.05,426.104z
		 M208.259,434.731h53.462C258.44,446.41,247.703,455,234.99,455S211.541,446.41,208.259,434.731z M360.973,419.731v-305.46
		c0-4.143-3.358-7.5-7.5-7.5c-4.143,0.001-7.5,3.358-7.5,7.5v305.46H124.008v-52.5c0-4.141-3.356-7.498-7.497-7.5
		c-4.145,0-7.503,3.357-7.503,7.5v52.5H68.459l23.247-304.977c0.949-12.458,12.307-22.983,24.801-22.983
		c0.003,0,236.963,0,236.963,0c12.496,0,23.854,10.525,24.803,22.983l23.247,304.977H360.973z M153.717,67.5
		c0-12.406,10.093-22.5,22.5-22.5h12.604v9.271c0,4.143,3.358,7.5,7.5,7.5c4.142,0,7.5-3.357,7.5-7.5V37.51c0-0.02,0-22.51,0-22.51
		h62.34v39.271c0,4.143,3.358,7.5,7.5,7.5c4.142,0,7.5-3.357,7.5-7.5V45h12.604c12.407,0,22.5,10.094,22.5,22.5v9.271H273.66h-77.34
		h-42.603V67.5z"/>
	<path style="fill:#081C1F;" d="M109.008,114.271v222.96c0,4.143,3.358,7.5,7.5,7.5c4.144-0.002,7.5-3.359,7.5-7.5v-222.96
		c0-4.141-3.356-7.498-7.497-7.5C112.366,106.771,109.008,110.129,109.008,114.271z"/>
	<path style="fill:#081C1F;" d="M281.061,343.386c-4.135,0-7.5,3.365-7.5,7.5c0,4.135,3.365,7.5,7.5,7.5s7.5-3.365,7.5-7.5
		C288.561,346.751,285.196,343.386,281.061,343.386z"/>
	<path style="fill:#081C1F;" d="M306.767,368.965c-4.135,0-7.5,3.365-7.5,7.5s3.365,7.5,7.5,7.5s7.5-3.365,7.5-7.5
		S310.902,368.965,306.767,368.965z"/>
</g>
<g>
</g>
<g>
</g>
<g>
</g>
<g>
</g>
<g>
</g>
<g>
</g>
<g>
</g>
<g>
</g>
<g>
</g>
<g>
</g>
<g>
</g>
<g>
</g>
<g>
</g>
<g>
</g>
<g>
</g>
</svg>
